<?xml version="1.0" encoding="UTF-8" standalone="no"?>
<svg width="11.2889mm" height="11.2889mm"
 viewBox="0 0 32 32"
 xmlns="http://www.w3.org/2000/svg" xmlns:xlink="http://www.w3.org/1999/xlink"  version="1.2" baseProfile="tiny">
<title>Qt SVG Document</title>
<desc>Generated with Qt</desc>
<defs>
</defs>
<g fill="none" stroke="black" stroke-width="1" fill-rule="evenodd" stroke-linecap="square" stroke-linejoin="bevel" >

<g fill="#ffffff" fill-opacity="1" stroke="#00b5e8" stroke-opacity="1" stroke-width="1.70079" stroke-linecap="square" stroke-linejoin="bevel" transform="matrix(1,0,0,1,0,0)"
font-family=".AppleSystemUIFont" font-size="13" font-weight="400" font-style="normal" 
>
<path vector-effect="none" fill-rule="evenodd" d="M23.6535,16 C23.6535,20.2269 20.2269,23.6535 16,23.6535 C11.7731,23.6535 8.34646,20.2269 8.34646,16 C8.34646,11.7731 11.7731,8.34646 16,8.34646 C20.2269,8.34646 23.6535,11.7731 23.6535,16 "/>
</g>

<g fill="#ffffff" fill-opacity="1" stroke="#00b5e8" stroke-opacity="1" stroke-width="1.70079" stroke-linecap="square" stroke-linejoin="bevel" transform="matrix(1,0,0,1,16,16)"
font-family=".AppleSystemUIFont" font-size="13" font-weight="400" font-style="normal" 
>
</g>

<g fill="#ffffff" fill-opacity="1" stroke="#00b5e8" stroke-opacity="1" stroke-width="1.70079" stroke-linecap="square" stroke-linejoin="bevel" transform="matrix(1,0,0,1,16,16)"
font-family=".AppleSystemUIFont" font-size="13" font-weight="400" font-style="normal" 
>
</g>

<g fill="none" stroke="none" transform="matrix(0.0755906,0,0,0.0755906,10.3307,10.3307)"
font-family=".AppleSystemUIFont" font-size="13" font-weight="400" font-style="normal" 
>
<path vector-effect="none" fill-rule="nonzero" d="M0,0 L150,0 L150,150 L0,150 L0,0"/>
</g>

<g fill="#40b4e5" fill-opacity="1" stroke="none" transform="matrix(0.0755906,0,0,0.0755906,10.3307,10.3307)"
font-family=".AppleSystemUIFont" font-size="13" font-weight="400" font-style="normal" 
>
<path vector-effect="none" fill-rule="nonzero" d="M124.9,17.2 C123.8,17.2 122.7,17.7 122,18.5 L75,65.5 L27.9,18.5 C27.1,17.6 26.1,17.2 25,17.2 C23.2,17.2 21.9,18.6 21.9,20.4 L21.9,34.5 C21.9,35.7 22.3,36.8 23.2,37.6 L67,81.3 C68,82.2 69.2,82.7 70.5,82.7 L79.1,82.7 C80.4,82.7 81.6,82.2 82.6,81.3 L126.4,37.7 C127.3,36.9 127.7,35.8 127.7,34.6 L127.7,20.6 C127.9,18.8 126.6,17.4 125,17.2 L124.9,17.2"/>
</g>

<g fill="#40b4e5" fill-opacity="1" stroke="none" transform="matrix(0.0755906,0,0,0.0755906,10.3307,10.3307)"
font-family=".AppleSystemUIFont" font-size="13" font-weight="400" font-style="normal" 
>
<path vector-effect="none" fill-rule="nonzero" d="M124.9,70.3 C123.8,70.3 122.7,70.8 122,71.6 L75,118.6 L28,71.6 C27.2,70.7 26.2,70.3 25.1,70.3 C23.3,70.3 22,71.7 22,73.5 L22,87.6 C22,88.8 22.4,89.9 23.3,90.7 L67.1,134.3 C68.1,135.2 69.3,135.7 70.6,135.7 L79.2,135.7 C80.5,135.7 81.7,135.2 82.7,134.3 L126.5,90.6 C127.4,89.8 127.8,88.7 127.8,87.5 L127.8,73.7 C127.9,71.9 126.7,70.5 125.1,70.3 L124.9,70.3"/>
</g>

<g fill="#ffffff" fill-opacity="1" stroke="#00b5e8" stroke-opacity="1" stroke-width="1.70079" stroke-linecap="square" stroke-linejoin="bevel" transform="matrix(1,0,0,1,16,16)"
font-family=".AppleSystemUIFont" font-size="13" font-weight="400" font-style="normal" 
>
</g>

<g fill="#ffffff" fill-opacity="1" stroke="#00b5e8" stroke-opacity="1" stroke-width="1.70079" stroke-linecap="square" stroke-linejoin="bevel" transform="matrix(1,0,0,1,16,16)"
font-family=".AppleSystemUIFont" font-size="13" font-weight="400" font-style="normal" 
>
</g>

<g fill="#ffffff" fill-opacity="1" stroke="#00b5e8" stroke-opacity="1" stroke-width="1.70079" stroke-linecap="square" stroke-linejoin="bevel" transform="matrix(1,0,0,1,0,0)"
font-family=".AppleSystemUIFont" font-size="13" font-weight="400" font-style="normal" 
>
</g>
</g>
</svg>
